<svg width="60" height="53" viewBox="0 0 60 53" fill="none" xmlns="http://www.w3.org/2000/svg">
<rect width="60" height="53" rx="8" fill="#09090B"/>
<path d="M22.1094 31.1172C26.4664 26.8429 33.5304 26.8429 37.8906 31.1172L50 43H44.2188L35 33.9561C33.6682 32.6549 31.8729 31.9258 30.0029 31.9258C28.1334 31.9259 26.3385 32.6549 25.0068 33.9561L15.7852 43H10L22.1094 31.1172ZM15.8076 10L24.9834 19.0146C26.3202 20.3223 28.1221 21.0557 29.999 21.0557C31.876 21.0556 33.6778 20.3222 35.0146 19.0146L44.1973 10H50L37.9229 21.8672C33.5493 26.1626 26.4588 26.1626 22.082 21.8672L10 10H15.8076Z" fill="white"/>
<path d="M22.1094 31.1172C26.4664 26.8429 33.5304 26.8429 37.8906 31.1172L50 43H44.2188L35 33.9561C33.6682 32.6549 31.8729 31.9258 30.0029 31.9258C28.1334 31.9259 26.3385 32.6549 25.0068 33.9561L15.7852 43H10L22.1094 31.1172ZM15.8076 10L24.9834 19.0146C26.3202 20.3223 28.1221 21.0557 29.999 21.0557C31.876 21.0556 33.6778 20.3222 35.0146 19.0146L44.1973 10H50L37.9229 21.8672C33.5493 26.1626 26.4588 26.1626 22.082 21.8672L10 10H15.8076Z" stroke="#09090B"/>
</svg>
