<svg width="40" height="33" viewBox="0 0 40 33" fill="none" xmlns="http://www.w3.org/2000/svg">
<path d="M12.1094 21.1172C16.4664 16.8429 23.5304 16.8429 27.8906 21.1172L40 33H34.2188L25 23.9561C23.6682 22.6549 21.8729 21.9258 20.0029 21.9258C18.1334 21.9259 16.3385 22.6549 15.0068 23.9561L5.78516 33H0L12.1094 21.1172ZM5.80762 0L14.9834 9.01465C16.3202 10.3223 18.1221 11.0557 19.999 11.0557C21.876 11.0556 23.6778 10.3222 25.0146 9.01465L34.1973 0H40L27.9229 11.8672C23.5493 16.1626 16.4588 16.1626 12.082 11.8672L0 0H5.80762Z" fill="white"/>
<path d="M12.1094 21.1172C16.4664 16.8429 23.5304 16.8429 27.8906 21.1172L40 33H34.2188L25 23.9561C23.6682 22.6549 21.8729 21.9258 20.0029 21.9258C18.1334 21.9259 16.3385 22.6549 15.0068 23.9561L5.78516 33H0L12.1094 21.1172ZM5.80762 0L14.9834 9.01465C16.3202 10.3223 18.1221 11.0557 19.999 11.0557C21.876 11.0556 23.6778 10.3222 25.0146 9.01465L34.1973 0H40L27.9229 11.8672C23.5493 16.1626 16.4588 16.1626 12.082 11.8672L0 0H5.80762Z" stroke="white"/>
</svg>
